#define batt_50_width 13
#define batt_50_height 5
static unsigned char batt_50_bits[] = {
   0xff, 0x0f, 0x01, 0x18, 0x01, 0x18, 0x01, 0x18, 0xff, 0x0f };
