#define batt_ps_width 13
#define batt_ps_height 5
static unsigned char batt_ps_bits[] = {
   0xbb, 0x1b, 0xa9, 0x10, 0xb9, 0x13, 0x09, 0x12, 0x8b, 0x1b };
