#define charging_width 13
#define charging_height 5
static unsigned char charging_bits[] = {
   0x0f, 0x0e, 0xa1, 0x18, 0xf1, 0x19, 0xe1, 0x18, 0x4f, 0x0e };
