#define mmeter_width 54
#define mmeter_height 8
static unsigned char mmeter_bits[] = {
   0x80, 0x81, 0x83, 0x83, 0x83, 0x83, 0x39, 0x11, 0x01, 0x82, 0x00, 0x82,
   0x02, 0x29, 0x1b, 0x81, 0x83, 0x03, 0x82, 0x03, 0x29, 0x15, 0x01, 0x02,
   0x02, 0x02, 0x02, 0x29, 0x91, 0x93, 0x93, 0x13, 0x12, 0x92, 0x3b, 0x11,
   0x00, 0x00, 0x00, 0x00, 0x00, 0x00, 0x11, 0x00, 0x00, 0x00, 0x00, 0x00,
   0x00, 0x91, 0xbb, 0xbb, 0xbb, 0xbb, 0xbb, 0x3b };
